<svg xmlns="http://www.w3.org/2000/svg" viewBox="0 0 72 72" role="img" aria-hidden="true">
  <defs>
    <linearGradient id="bg" x1="0%" y1="0%" x2="100%" y2="100%">
      <stop offset="0%" stop-color="#22d3ee"/>
      <stop offset="100%" stop-color="#0e7490"/>
    </linearGradient>
  </defs>
  <circle cx="36" cy="36" r="34" fill="url(#bg)"/>
  <rect x="14" y="16" width="44" height="44" rx="10" fill="#fff" opacity="0.96"/>
  <rect x="14" y="16" width="44" height="44" rx="10" fill="none" stroke="#0891b2" stroke-width="1.4" opacity="0.35"/>
  <!-- Shower head + arm -->
  <path fill="none" stroke="#0e7490" stroke-width="2" stroke-linecap="round" d="M48 22v8"/>
  <circle cx="48" cy="20" r="2.5" fill="#06b6d4"/>
  <path fill="none" stroke="#06b6d4" stroke-width="1.2" stroke-dasharray="2 2" d="M48 30c-4 6-10 8-16 8"/>
  <!-- Classic tub (side view) -->
  <path fill="#cffafe" stroke="#0e7490" stroke-width="2" stroke-linejoin="round"
    d="M22 46c0-10 6-16 14-16s14 6 14 16H22z"/>
  <path fill="none" stroke="#0e7490" stroke-width="2" stroke-linecap="round"
    d="M24 46c2-8 8-12 12-12s10 4 12 12"/>
  <!-- Taps -->
  <rect x="30" y="30" width="3" height="6" rx="1" fill="#0e7490"/>
  <rect x="39" y="30" width="3" height="6" rx="1" fill="#0e7490"/>
  <path fill="none" stroke="#67e8f9" stroke-width="1.5" stroke-linecap="round" d="M32 40v3M40 40v3"/>
</svg>
