<svg xmlns="http://www.w3.org/2000/svg" viewBox="0 0 72 72" role="img" aria-hidden="true">
  <defs>
    <linearGradient id="fb-outer" x1="0%" y1="0%" x2="100%" y2="100%">
      <stop offset="0%" stop-color="#0d9488"/>
      <stop offset="100%" stop-color="#115e59"/>
    </linearGradient>
  </defs>
  <circle cx="36" cy="36" r="34" fill="url(#fb-outer)"/>
  <rect x="14" y="16" width="44" height="44" rx="10" fill="#fff" opacity="0.98"/>
  <rect x="14" y="16" width="44" height="44" rx="10" fill="none" stroke="#ccfbf1" stroke-width="1.2" opacity="0.9"/>
  <!-- Monochrome schematic: toilet | shelf | shower | mirror+sink (matches reference layout) -->
  <g fill="none" stroke="#0f766e" stroke-width="1.35" stroke-linecap="round" stroke-linejoin="round">
    <!-- Toilet (left) -->
    <rect x="17" y="38" width="9" height="11" rx="1"/>
    <path d="M19 38V34c0-1.2 1-2 2.5-2s2.5.8 2.5 2v4"/>
    <ellipse cx="21.5" cy="50" rx="3.5" ry="2.2"/>
    <!-- Shelf above toilet -->
    <path stroke-width="1.1" d="M17 31h11"/>
    <path stroke-width="1" d="M18.5 29h2M22 29h2M25.5 29h1.5"/>
    <!-- Shower stall (center) -->
    <rect x="29" y="26" width="13" height="24" rx="1.2"/>
    <path stroke-dasharray="2 1.5" d="M31 28v20M33.5 28v20M36 28v20M38.5 28v20"/>
    <path d="M35.5 28v-3"/>
    <circle cx="35.5" cy="24" r="1.8" fill="#0f766e" stroke="none"/>
    <path d="M33 32h5M33 36h5"/>
    <!-- Mirror + pedestal sink (right) -->
    <rect x="45" y="24" width="10" height="13" rx="1.5"/>
    <path d="M47 27h6M47 30h6"/>
    <path d="M48 38v10"/>
    <path d="M44 50c0-2 2.5-4 6-4s6 2 6 4" fill="#ecfdf5" stroke="#0f766e"/>
    <ellipse cx="50" cy="48" rx="5" ry="1.8" fill="#d1fae5" stroke="#0f766e" stroke-width="1.1"/>
  </g>
</svg>
