<svg xmlns="http://www.w3.org/2000/svg" viewBox="0 0 72 72" role="img" aria-hidden="true">
  <defs>
    <linearGradient id="bg" x1="0%" y1="0%" x2="100%" y2="100%">
      <stop offset="0%" stop-color="#fb7185"/>
      <stop offset="100%" stop-color="#be123c"/>
    </linearGradient>
  </defs>
  <circle cx="36" cy="36" r="34" fill="url(#bg)"/>
  <rect x="14" y="16" width="44" height="44" rx="10" fill="#fff" opacity="0.96"/>
  <rect x="14" y="16" width="44" height="44" rx="10" fill="none" stroke="#e11d48" stroke-width="1.4" opacity="0.35"/>
  <!-- Armchair -->
  <path fill="#ffe4e6" stroke="#9f1239" stroke-width="1.6" stroke-linejoin="round"
    d="M22 44h28v6H22z"/>
  <path fill="#fecdd3" stroke="#9f1239" stroke-width="1.6" stroke-linejoin="round"
    d="M24 32h24c3 0 6 3 6 7v5H24v-5c0-4 3-7 6-7z"/>
  <path fill="#fff1f2" stroke="#9f1239" stroke-width="1.4" d="M26 34h20v8H26z"/>
  <!-- Arms -->
  <rect x="20" y="36" width="6" height="10" rx="2" fill="#fda4af" stroke="#9f1239" stroke-width="1.2"/>
  <rect x="46" y="36" width="6" height="10" rx="2" fill="#fda4af" stroke="#9f1239" stroke-width="1.2"/>
  <rect x="22" y="50" width="5" height="4" rx="1" fill="#9f1239" opacity="0.45"/>
  <rect x="45" y="50" width="5" height="4" rx="1" fill="#9f1239" opacity="0.45"/>
</svg>
