<svg xmlns="http://www.w3.org/2000/svg" viewBox="0 0 72 72" role="img" aria-hidden="true">
  <defs>
    <linearGradient id="spk" x1="0%" y1="0%" x2="100%" y2="100%">
      <stop offset="0%" stop-color="#fcd34d"/>
      <stop offset="100%" stop-color="#d97706"/>
    </linearGradient>
  </defs>
  <circle cx="36" cy="36" r="34" fill="url(#spk)"/>
  <path fill="#fff" d="M36 14l3 11 11 2-8 7 2 9-9-6-9 6 2-9-8-7 11-2-3-11z" opacity=".95"/>
  <path fill="#fef9c3" d="M52 22l1.5 4 4 1-3 2.5 1 3.5-3.5-2.5-3.5 2.5 1-3.5-3-2.5 4-1L52 22z" opacity=".85"/>
  <path fill="#fef9c3" d="M20 48l1 3 3 .8-2.2 1.8.8 2.6-2.6-1.8-2.6 1.8.8-2.6-2.2-1.8 3-.8 1-3z" opacity=".85"/>
</svg>
